# Exported from Wings 3D 2.4.1
mtllib robot.mtl
o Cube1
#244 vertices, 234 faces
v -0.45000000 -1.48600000 1.00000000
v -0.45000000 1.48600000 1.00000000
v 0.45000000 -1.48600000 1.00000000
v 0.45000000 1.48600000 1.00000000
v -0.16830000 1.67444444 0.71830000
v 0.16830000 1.67444444 0.71830000
v -0.16830000 1.81666667 0.23943333
v 0.16830000 1.81666667 0.23943333
v -0.16830000 2.21133333 0.23943333
v 0.16830000 2.21133333 0.23943333
v -0.30226680 3.09592889 0.43002227
v 0.30226680 3.09592889 0.43002227
v -0.30226680 2.43340444 0.43002227
v 0.30226680 2.43340444 0.43002227
v -0.45000000 -1.48600000 0.0000000e+0
v 0.45000000 -1.48600000 0.0000000e+0
v -0.21510000 -3.19444444 0.23490000
v 0.21510000 -3.19444444 0.23490000
v 0.21510000 -3.19444444 0.76510000
v -0.21510000 -3.19444444 0.76510000
v -0.21510000 -5.13287644 0.23490000
v 0.21510000 -5.13287644 0.23490000
v 0.21510000 -5.13287644 0.76510000
v -0.21510000 -5.13287644 0.76510000
v -0.21510000 -5.44990684 0.23490000
v 0.21510000 -5.44990684 0.23490000
v 0.21510000 -5.44990684 0.76510000
v -0.21510000 -5.44990684 0.76510000
v 0.92505270 -5.44990684 0.76510000
v 0.92505270 -5.44990684 0.23490000
v 0.92505270 -5.13287644 0.23490000
v 0.92505270 -5.13287644 0.76510000
v -0.45000000 0.0000000e+0 1.00000000
v 0.45000000 0.0000000e+0 1.00000000
v 0.92505270 -5.44990684 0.50000000
v 0.92505270 -5.29139164 0.23490000
v 0.92505270 -5.13287644 0.50000000
v 0.92505270 -5.29139164 0.76510000
v -0.45000000 0.74300000 1.00000000
v 0.45000000 0.74300000 1.00000000
v -0.31848900 0.87451100 2.87696145
v 0.31848900 0.87451100 2.87696145
v 0.31848900 1.35448900 2.87696145
v -0.31848900 1.35448900 2.87696145
v -0.31848900 0.87451100 4.50891162
v 0.31848900 0.87451100 4.50891162
v 0.31848900 1.35448900 4.50891162
v -0.31848900 1.35448900 4.50891162
v 0.31848900 1.11450000 4.50891162
v -0.31848900 1.11450000 4.50891162
v 0.0000000e+0 0.87451100 4.50891162
v 0.0000000e+0 1.11450000 4.50891162
v 0.0000000e+0 1.35448900 4.50891162
v -0.15924450 1.35448900 4.50891162
v -0.15924450 1.11450000 4.50891162
v 0.15924450 1.11450000 4.50891162
v 0.15924450 1.35448900 4.50891162
v 0.12612164 1.14762286 4.79843031
v 0.12612164 1.32136614 4.79843031
v 3.3122856e-2 1.32136614 4.79843031
v 3.3122856e-2 1.14762286 4.79843031
v -0.12612164 1.32136614 4.79843031
v -0.12612164 1.14762286 4.79843031
v -3.3122856e-2 1.14762286 4.79843031
v -3.3122856e-2 1.32136614 4.79843031
v 0.19236736 1.32136614 4.79843031
v 0.19236736 1.14762286 4.79843031
v 0.28536614 1.14762286 4.79843031
v 0.28536614 1.32136614 4.79843031
v -0.19236736 1.14762286 4.79843031
v -0.19236736 1.32136614 4.79843031
v -0.28536614 1.32136614 4.79843031
v -0.28536614 1.14762286 4.79843031
v -0.19236736 1.14762286 5.02629225
v -0.19236736 1.32136614 5.02629225
v -0.28536614 1.32136614 5.02629225
v -0.28536614 1.14762286 5.02629225
v 0.19236736 1.32136614 5.02629225
v 0.19236736 1.14762286 5.02629225
v 0.28536614 1.14762286 5.02629225
v 0.28536614 1.32136614 5.02629225
v -0.12612164 1.32136614 5.02629225
v -0.12612164 1.14762286 5.02629225
v -3.3122856e-2 1.14762286 5.02629225
v -3.3122856e-2 1.32136614 5.02629225
v 0.12612164 1.14762286 5.02629225
v 0.12612164 1.32136614 5.02629225
v 3.3122856e-2 1.32136614 5.02629225
v 3.3122856e-2 1.14762286 5.02629225
v 0.10556891 1.16817559 5.25951564
v 0.10556891 1.30081341 5.25951564
v 5.3675588e-2 1.30081341 5.25951564
v 5.3675588e-2 1.16817559 5.25951564
v -0.10556891 1.30081341 5.25951564
v -0.10556891 1.16817559 5.25951564
v -5.3675588e-2 1.16817559 5.25951564
v -5.3675588e-2 1.30081341 5.25951564
v 0.21292009 1.30081341 5.25951564
v 0.21292009 1.16817559 5.25951564
v 0.26481341 1.16817559 5.25951564
v 0.26481341 1.30081341 5.25951564
v -0.21292009 1.16817559 5.25951564
v -0.21292009 1.30081341 5.25951564
v -0.26481341 1.30081341 5.25951564
v -0.26481341 1.16817559 5.25951564
v -0.45000000 1.48600000 0.0000000e+0
v 0.45000000 1.48600000 0.0000000e+0
v -0.16830000 1.81666667 2.7755576e-17
v 0.16830000 1.81666667 -2.7755576e-17
v -0.16830000 2.21133333 2.7755576e-17
v 0.16830000 2.21133333 -2.7755576e-17
v -0.30226680 3.09592889 5.5511151e-17
v 0.30226680 3.09592889 -5.5511151e-17
v -0.30226680 2.43340444 5.5511151e-17
v 0.30226680 2.43340444 -5.5511151e-17
v 0.45000000 0.0000000e+0 0.0000000e+0
v -0.45000000 0.0000000e+0 0.0000000e+0
v 0.45000000 0.74300000 0.0000000e+0
v -0.45000000 0.74300000 0.0000000e+0
v 4.1470099e-2 0.91598110 4.76071045
v 0.27701890 0.91598110 4.76071045
v 0.27701890 1.07302990 4.76071045
v 0.15924450 1.07302990 4.76071045
v 4.1470099e-2 1.07302990 4.76071045
v 6.3833849e-2 0.93834485 4.94752894
v 0.25465515 0.93834485 4.94752894
v 0.25465515 1.05066615 4.94752894
v 0.15924450 1.05066615 4.94752894
v 6.3833849e-2 1.05066615 4.94752894
v -0.45000000 -1.48600000 -1.00000000
v -0.45000000 1.48600000 -1.00000000
v 0.45000000 -1.48600000 -1.00000000
v 0.45000000 1.48600000 -1.00000000
v -0.16830000 1.67444444 -0.71830000
v 0.16830000 1.67444444 -0.71830000
v -0.16830000 1.81666667 -0.23943333
v 0.16830000 1.81666667 -0.23943333
v -0.16830000 2.21133333 -0.23943333
v 0.16830000 2.21133333 -0.23943333
v -0.30226680 3.09592889 -0.43002227
v 0.30226680 3.09592889 -0.43002227
v -0.30226680 2.43340444 -0.43002227
v 0.30226680 2.43340444 -0.43002227
v -0.21510000 -3.19444444 -0.23490000
v 0.21510000 -3.19444444 -0.23490000
v 0.21510000 -3.19444444 -0.76510000
v -0.21510000 -3.19444444 -0.76510000
v -0.21510000 -5.13287644 -0.23490000
v 0.21510000 -5.13287644 -0.23490000
v 0.21510000 -5.13287644 -0.76510000
v -0.21510000 -5.13287644 -0.76510000
v -0.21510000 -5.44990684 -0.23490000
v 0.21510000 -5.44990684 -0.23490000
v 0.21510000 -5.44990684 -0.76510000
v -0.21510000 -5.44990684 -0.76510000
v 0.92505270 -5.44990684 -0.76510000
v 0.92505270 -5.44990684 -0.23490000
v 0.92505270 -5.13287644 -0.23490000
v 0.92505270 -5.13287644 -0.76510000
v -0.45000000 0.0000000e+0 -1.00000000
v 0.45000000 0.0000000e+0 -1.00000000
v 0.92505270 -5.44990684 -0.50000000
v 0.92505270 -5.29139164 -0.23490000
v 0.92505270 -5.13287644 -0.50000000
v 0.92505270 -5.29139164 -0.76510000
v -0.45000000 0.74300000 -1.00000000
v 0.45000000 0.74300000 -1.00000000
v -0.31848900 0.87451100 -2.87696145
v 0.31848900 0.87451100 -2.87696145
v 0.31848900 1.35448900 -2.87696145
v -0.31848900 1.35448900 -2.87696145
v -0.31848900 0.87451100 -4.50891162
v 0.31848900 0.87451100 -4.50891162
v 0.31848900 1.35448900 -4.50891162
v -0.31848900 1.35448900 -4.50891162
v 0.31848900 1.11450000 -4.50891162
v -0.31848900 1.11450000 -4.50891162
v -3.1570943e-16 0.87451100 -4.50891162
v -3.1570943e-16 1.11450000 -4.50891162
v -3.1570943e-16 1.35448900 -4.50891162
v -0.15924450 1.35448900 -4.50891162
v -0.15924450 1.11450000 -4.50891162
v 0.15924450 1.11450000 -4.50891162
v 0.15924450 1.35448900 -4.50891162
v 0.12612164 1.14762286 -4.79843031
v 0.12612164 1.32136614 -4.79843031
v 3.3122856e-2 1.32136614 -4.79843031
v 3.3122856e-2 1.14762286 -4.79843031
v -0.12612164 1.32136614 -4.79843031
v -0.12612164 1.14762286 -4.79843031
v -3.3122856e-2 1.14762286 -4.79843031
v -3.3122856e-2 1.32136614 -4.79843031
v 0.19236736 1.32136614 -4.79843031
v 0.19236736 1.14762286 -4.79843031
v 0.28536614 1.14762286 -4.79843031
v 0.28536614 1.32136614 -4.79843031
v -0.19236736 1.14762286 -4.79843031
v -0.19236736 1.32136614 -4.79843031
v -0.28536614 1.32136614 -4.79843031
v -0.28536614 1.14762286 -4.79843031
v -0.19236736 1.14762286 -5.02629225
v -0.19236736 1.32136614 -5.02629225
v -0.28536614 1.32136614 -5.02629225
v -0.28536614 1.14762286 -5.02629225
v 0.19236736 1.32136614 -5.02629225
v 0.19236736 1.14762286 -5.02629225
v 0.28536614 1.14762286 -5.02629225
v 0.28536614 1.32136614 -5.02629225
v -0.12612164 1.32136614 -5.02629225
v -0.12612164 1.14762286 -5.02629225
v -3.3122856e-2 1.14762286 -5.02629225
v -3.3122856e-2 1.32136614 -5.02629225
v 0.12612164 1.14762286 -5.02629225
v 0.12612164 1.32136614 -5.02629225
v 3.3122856e-2 1.32136614 -5.02629225
v 3.3122856e-2 1.14762286 -5.02629225
v 0.10556891 1.16817559 -5.25951564
v 0.10556891 1.30081341 -5.25951564
v 5.3675588e-2 1.30081341 -5.25951564
v 5.3675588e-2 1.16817559 -5.25951564
v -0.10556891 1.30081341 -5.25951564
v -0.10556891 1.16817559 -5.25951564
v -5.3675588e-2 1.16817559 -5.25951564
v -5.3675588e-2 1.30081341 -5.25951564
v 0.21292009 1.30081341 -5.25951564
v 0.21292009 1.16817559 -5.25951564
v 0.26481341 1.16817559 -5.25951564
v 0.26481341 1.30081341 -5.25951564
v -0.21292009 1.16817559 -5.25951564
v -0.21292009 1.30081341 -5.25951564
v -0.26481341 1.30081341 -5.25951564
v -0.26481341 1.16817559 -5.25951564
v 0.45000000 0.0000000e+0 -3.6009766e-17
v 0.45000000 0.74300000 -3.6009766e-17
v 4.1470099e-2 0.91598110 -4.76071045
v 0.27701890 0.91598110 -4.76071045
v 0.27701890 1.07302990 -4.76071045
v 0.15924450 1.07302990 -4.76071045
v 4.1470099e-2 1.07302990 -4.76071045
v 6.3833849e-2 0.93834485 -4.94752894
v 0.25465515 0.93834485 -4.94752894
v 0.25465515 1.05066615 -4.94752894
v 0.15924450 1.05066615 -4.94752894
v 6.3833849e-2 1.05066615 -4.94752894
vn -0.70381920 -9.6317487e-2 0.70381920
vn -0.71019219 0.67504039 0.19986875
vn 0.70381920 -9.6317487e-2 0.70381920
vn 0.71019219 0.67504039 0.19986875
vn -0.24942122 0.91163489 0.32666632
vn 0.24942122 0.91163489 0.32666632
vn -0.61682471 0.61482761 0.49144104
vn 0.61682471 0.61482761 0.49144104
vn -0.66030041 -0.41541045 0.62564969
vn 0.66030041 -0.41541045 0.62564969
vn -0.57735027 0.57735027 0.57735027
vn 0.57735027 0.57735027 0.57735027
vn -0.66030041 -0.41541045 0.62564969
vn 0.66030041 -0.41541045 0.62564969
vn -0.99076558 -0.13558603 1.5704540e-17
vn 0.99076558 -0.13558603 -2.9518550e-17
vn -0.70381920 -9.6317487e-2 -0.70381920
vn 0.70381920 -9.6317487e-2 -0.70381920
vn 0.70381920 -9.6317487e-2 0.70381920
vn -0.70381920 -9.6317487e-2 0.70381920
vn -0.70710678 0.0000000e+0 -0.70710678
vn 0.30151134 0.30151134 -0.90453403
vn 0.30151134 0.30151134 0.90453403
vn -0.70710678 0.0000000e+0 0.70710678
vn -0.57735027 -0.57735027 -0.57735027
vn 0.0000000e+0 -0.70710678 -0.70710678
vn 0.0000000e+0 -0.70710678 0.70710678
vn -0.57735027 -0.57735027 0.57735027
vn 0.57735027 -0.57735027 0.57735027
vn 0.57735027 -0.57735027 -0.57735027
vn 0.57735027 0.57735027 -0.57735027
vn 0.57735027 0.57735027 0.57735027
vn -0.70710678 0.0000000e+0 0.70710678
vn 0.70710678 0.0000000e+0 0.70710678
vn 0.94868330 -0.31622777 0.0000000e+0
vn 0.94868330 0.0000000e+0 -0.31622777
vn 0.94868330 0.31622777 0.0000000e+0
vn 0.94868330 0.0000000e+0 0.31622777
vn -0.89252599 -0.29702321 0.33937379
vn 0.89252599 -0.29702321 0.33937379
vn -0.70624265 -0.70624265 4.9422947e-2
vn 0.70624265 -0.70624265 4.9422947e-2
vn 0.70624265 0.70624265 4.9422947e-2
vn -0.70624265 0.70624265 4.9422947e-2
vn -0.57735027 -0.57735027 0.57735027
vn 0.70242270 -0.70242270 0.11491174
vn 0.70481914 0.70481914 8.0373832e-2
vn -0.70481914 0.70481914 8.0373832e-2
vn 0.98325300 -2.2473157e-3 0.18223196
vn -0.78388237 -0.39066699 0.48260516
vn -0.38187563 -0.76889572 0.51280637
vn -0.43515500 -0.44116306 0.78486641
vn 0.0000000e+0 0.98861335 0.15047802
vn 0.0000000e+0 0.98861335 0.15047802
vn 0.0000000e+0 -0.80688898 0.59070311
vn 0.0000000e+0 -1.7470258e-2 0.99984738
vn 0.0000000e+0 0.98861335 0.15047802
vn 0.70481914 -0.70481914 8.0373832e-2
vn 0.70481914 0.70481914 8.0373832e-2
vn -0.70481914 0.70481914 8.0373832e-2
vn -0.70481914 -0.70481914 8.0373832e-2
vn -0.70481914 0.70481914 8.0373832e-2
vn -0.70481914 -0.70481914 8.0373832e-2
vn 0.70481914 -0.70481914 8.0373832e-2
vn 0.70481914 0.70481914 8.0373832e-2
vn -0.70481914 0.70481914 8.0373832e-2
vn -0.70481914 -0.70481914 8.0373832e-2
vn 0.70481914 -0.70481914 8.0373832e-2
vn 0.70481914 0.70481914 8.0373832e-2
vn 0.70481914 -0.70481914 8.0373832e-2
vn 0.70481914 0.70481914 8.0373832e-2
vn -0.70481914 0.70481914 8.0373832e-2
vn -0.70481914 -0.70481914 8.0373832e-2
vn 0.70574320 -0.70574320 6.2073098e-2
vn 0.70574320 0.70574320 6.2073098e-2
vn -0.70574320 0.70574320 6.2073098e-2
vn -0.70574320 -0.70574320 6.2073098e-2
vn -0.70574320 0.70574320 6.2073098e-2
vn -0.70574320 -0.70574320 6.2073098e-2
vn 0.70574320 -0.70574320 6.2073098e-2
vn 0.70574320 0.70574320 6.2073098e-2
vn -0.70574320 0.70574320 6.2073098e-2
vn -0.70574320 -0.70574320 6.2073098e-2
vn 0.70574320 -0.70574320 6.2073098e-2
vn 0.70574320 0.70574320 6.2073098e-2
vn 0.70574320 -0.70574320 6.2073098e-2
vn 0.70574320 0.70574320 6.2073098e-2
vn -0.70574320 0.70574320 6.2073098e-2
vn -0.70574320 -0.70574320 6.2073098e-2
vn 0.54290973 -0.54290973 0.64070122
vn 0.54290973 0.54290973 0.64070122
vn -0.54290973 0.54290973 0.64070122
vn -0.54290973 -0.54290973 0.64070122
vn -0.54290973 0.54290973 0.64070122
vn -0.54290973 -0.54290973 0.64070122
vn 0.54290973 -0.54290973 0.64070122
vn 0.54290973 0.54290973 0.64070122
vn -0.54290973 0.54290973 0.64070122
vn -0.54290973 -0.54290973 0.64070122
vn 0.54290973 -0.54290973 0.64070122
vn 0.54290973 0.54290973 0.64070122
vn 0.54290973 -0.54290973 0.64070122
vn 0.54290973 0.54290973 0.64070122
vn -0.54290973 0.54290973 0.64070122
vn -0.54290973 -0.54290973 0.64070122
vn -0.91908752 0.39405347 6.0462362e-17
vn 0.91908752 0.39405347 -6.0462362e-17
vn -0.91908752 0.39405347 7.6912114e-17
vn 0.91908752 0.39405347 -7.6912114e-17
vn -0.96339469 -0.26808706 5.6008923e-17
vn 0.96339469 -0.26808706 -6.1194381e-17
vn -0.70710678 0.70710678 4.5639859e-17
vn 0.70710678 0.70710678 -4.5639859e-17
vn -0.96339469 -0.26808706 5.9425767e-17
vn 0.96339469 -0.26808706 -6.4611226e-17
vn 1.00000000 0.0000000e+0 0.0000000e+0
vn -1.00000000 0.0000000e+0 2.7755576e-17
vn 1.00000000 0.0000000e+0 0.0000000e+0
vn -1.00000000 0.0000000e+0 2.7755576e-17
vn -0.69324105 -0.69324105 0.19706266
vn 0.69324105 -0.69324105 0.19706266
vn 0.69324105 0.69324105 0.19706266
vn 0.0000000e+0 0.99004983 0.14071718
vn -0.69324105 0.69324105 0.19706266
vn -0.53045337 -0.53045337 0.66124007
vn 0.53045337 -0.53045337 0.66124007
vn 0.53045337 0.53045337 0.66124007
vn 0.0000000e+0 0.84865437 0.52894779
vn -0.53045337 0.53045337 0.66124007
vn -0.70381920 -9.6317487e-2 -0.70381920
vn -0.71019219 0.67504039 -0.19986875
vn 0.70381920 -9.6317487e-2 -0.70381920
vn 0.71019219 0.67504039 -0.19986875
vn -0.24942122 0.91163489 -0.32666632
vn 0.24942122 0.91163489 -0.32666632
vn -0.61682471 0.61482761 -0.49144104
vn 0.61682471 0.61482761 -0.49144104
vn -0.66030041 -0.41541045 -0.62564969
vn 0.66030041 -0.41541045 -0.62564969
vn -0.57735027 0.57735027 -0.57735027
vn 0.57735027 0.57735027 -0.57735027
vn -0.66030041 -0.41541045 -0.62564969
vn 0.66030041 -0.41541045 -0.62564969
vn -0.70381920 -9.6317487e-2 0.70381920
vn 0.70381920 -9.6317487e-2 0.70381920
vn 0.70381920 -9.6317487e-2 -0.70381920
vn -0.70381920 -9.6317487e-2 -0.70381920
vn -0.70710678 0.0000000e+0 0.70710678
vn 0.30151134 0.30151134 0.90453403
vn 0.30151134 0.30151134 -0.90453403
vn -0.70710678 0.0000000e+0 -0.70710678
vn -0.57735027 -0.57735027 0.57735027
vn 6.7420423e-17 -0.70710678 0.70710678
vn -8.7197677e-17 -0.70710678 -0.70710678
vn -0.57735027 -0.57735027 -0.57735027
vn 0.57735027 -0.57735027 -0.57735027
vn 0.57735027 -0.57735027 0.57735027
vn 0.57735027 0.57735027 0.57735027
vn 0.57735027 0.57735027 -0.57735027
vn -0.70710678 0.0000000e+0 -0.70710678
vn 0.70710678 0.0000000e+0 -0.70710678
vn 0.94868330 -0.31622777 -1.2707794e-16
vn 0.94868330 0.0000000e+0 0.31622777
vn 0.94868330 0.31622777 1.1968560e-16
vn 0.94868330 0.0000000e+0 -0.31622777
vn -0.89252599 -0.29702321 -0.33937379
vn 0.89252599 -0.29702321 -0.33937379
vn -0.70624265 -0.70624265 -4.9422947e-2
vn 0.70624265 -0.70624265 -4.9422947e-2
vn 0.70624265 0.70624265 -4.9422947e-2
vn -0.70624265 0.70624265 -4.9422947e-2
vn -0.57735027 -0.57735027 -0.57735027
vn 0.70242270 -0.70242270 -0.11491174
vn 0.70481914 0.70481914 -8.0373832e-2
vn -0.70481914 0.70481914 -8.0373832e-2
vn 0.98325300 -2.2473157e-3 -0.18223196
vn -0.78388237 -0.39066699 -0.48260516
vn -0.38187563 -0.76889572 -0.51280637
vn -0.43515500 -0.44116306 -0.78486641
vn 0.0000000e+0 0.98861335 -0.15047802
vn 0.0000000e+0 0.98861335 -0.15047802
vn 0.0000000e+0 -0.80688898 -0.59070311
vn 0.0000000e+0 -1.7470258e-2 -0.99984738
vn 0.0000000e+0 0.98861335 -0.15047802
vn 0.70481914 -0.70481914 -8.0373832e-2
vn 0.70481914 0.70481914 -8.0373832e-2
vn -0.70481914 0.70481914 -8.0373832e-2
vn -0.70481914 -0.70481914 -8.0373832e-2
vn -0.70481914 0.70481914 -8.0373832e-2
vn -0.70481914 -0.70481914 -8.0373832e-2
vn 0.70481914 -0.70481914 -8.0373832e-2
vn 0.70481914 0.70481914 -8.0373832e-2
vn -0.70481914 0.70481914 -8.0373832e-2
vn -0.70481914 -0.70481914 -8.0373832e-2
vn 0.70481914 -0.70481914 -8.0373832e-2
vn 0.70481914 0.70481914 -8.0373832e-2
vn 0.70481914 -0.70481914 -8.0373832e-2
vn 0.70481914 0.70481914 -8.0373832e-2
vn -0.70481914 0.70481914 -8.0373832e-2
vn -0.70481914 -0.70481914 -8.0373832e-2
vn 0.70574320 -0.70574320 -6.2073098e-2
vn 0.70574320 0.70574320 -6.2073098e-2
vn -0.70574320 0.70574320 -6.2073098e-2
vn -0.70574320 -0.70574320 -6.2073098e-2
vn -0.70574320 0.70574320 -6.2073098e-2
vn -0.70574320 -0.70574320 -6.2073098e-2
vn 0.70574320 -0.70574320 -6.2073098e-2
vn 0.70574320 0.70574320 -6.2073098e-2
vn -0.70574320 0.70574320 -6.2073098e-2
vn -0.70574320 -0.70574320 -6.2073098e-2
vn 0.70574320 -0.70574320 -6.2073098e-2
vn 0.70574320 0.70574320 -6.2073098e-2
vn 0.70574320 -0.70574320 -6.2073098e-2
vn 0.70574320 0.70574320 -6.2073098e-2
vn -0.70574320 0.70574320 -6.2073098e-2
vn -0.70574320 -0.70574320 -6.2073098e-2
vn 0.54290973 -0.54290973 -0.64070122
vn 0.54290973 0.54290973 -0.64070122
vn -0.54290973 0.54290973 -0.64070122
vn -0.54290973 -0.54290973 -0.64070122
vn -0.54290973 0.54290973 -0.64070122
vn -0.54290973 -0.54290973 -0.64070122
vn 0.54290973 -0.54290973 -0.64070122
vn 0.54290973 0.54290973 -0.64070122
vn -0.54290973 0.54290973 -0.64070122
vn -0.54290973 -0.54290973 -0.64070122
vn 0.54290973 -0.54290973 -0.64070122
vn 0.54290973 0.54290973 -0.64070122
vn 0.54290973 -0.54290973 -0.64070122
vn 0.54290973 0.54290973 -0.64070122
vn -0.54290973 0.54290973 -0.64070122
vn -0.54290973 -0.54290973 -0.64070122
vn 1.00000000 0.0000000e+0 -5.5511151e-17
vn 1.00000000 0.0000000e+0 -5.5511151e-17
vn -0.69324105 -0.69324105 -0.19706266
vn 0.69324105 -0.69324105 -0.19706266
vn 0.69324105 0.69324105 -0.19706266
vn 0.0000000e+0 0.99004983 -0.14071718
vn -0.69324105 0.69324105 -0.19706266
vn -0.53045337 -0.53045337 -0.66124007
vn 0.53045337 -0.53045337 -0.66124007
vn 0.53045337 0.53045337 -0.66124007
vn 0.0000000e+0 0.84865437 -0.52894779
vn -0.53045337 0.53045337 -0.66124007
g Cube1_default
usemtl default
s 1
f 1//1 3//3 34//34 33//33
f 1//1 20//20 19//19 3//3
f 2//2 44//44 43//43 4//4
f 2//2 106//106 119//119 39//39
f 3//3 16//16 116//116 34//34
f 3//3 19//19 18//18 16//16
f 4//4 6//6 5//5 2//2
f 4//4 43//43 42//42 40//40
f 4//4 107//107 109//109 8//8 6//6
f 5//5 6//6 8//8 7//7
f 7//7 9//9 110//110 108//108
f 7//7 108//108 106//106 2//2 5//5
f 8//8 10//10 9//9 7//7
f 8//8 109//109 111//111 10//10
f 9//9 13//13 114//114 110//110
f 10//10 14//14 13//13 9//9
f 10//10 111//111 115//115 14//14
f 11//11 12//12 113//113 112//112
f 11//11 13//13 14//14 12//12
f 14//14 115//115 113//113 12//12
f 15//15 17//17 20//20 1//1
f 15//15 144//144 145//145 16//16
f 16//16 18//18 17//17 15//15
f 16//16 107//107 116//116
f 16//16 145//145 146//146 132//132
f 16//16 233//233 107//107
f 17//17 21//21 24//24 20//20
f 18//18 22//22 21//21 17//17
f 19//19 23//23 22//22 18//18
f 20//20 24//24 23//23 19//19
f 21//21 25//25 28//28 24//24
f 22//22 26//26 25//25 21//21
f 22//22 31//31 36//36 30//30 26//26
f 23//23 32//32 37//37 31//31 22//22
f 24//24 28//28 27//27 23//23
f 26//26 27//27 28//28 25//25
f 26//26 30//30 35//35 29//29 27//27
f 27//27 29//29 38//38 32//32 23//23
f 29//29 35//35 38//38
f 30//30 36//36 35//35
f 31//31 37//37 36//36
f 32//32 38//38 37//37
f 33//33 34//34 40//40 39//39
f 33//33 117//117 15//15 1//1
f 34//34 116//116 118//118 40//40
f 35//35 36//36 37//37 38//38
f 39//39 41//41 44//44 2//2
f 39//39 119//119 117//117 33//33
f 40//40 42//42 41//41 39//39
f 40//40 118//118 107//107 4//4
f 41//41 45//45 50//50 48//48 44//44
f 42//42 46//46 51//51 45//45 41//41
f 43//43 47//47 49//49 46//46 42//42
f 44//44 48//48 54//54 53//53 57//57 47//47 43//43
f 45//45 51//51 52//52 55//55 50//50
f 46//46 121//121 120//120 51//51
f 47//47 69//69 68//68 49//49
f 48//48 72//72 71//71 54//54
f 49//49 68//68 67//67 56//56
f 49//49 122//122 121//121 46//46
f 50//50 73//73 72//72 48//48
f 51//51 120//120 124//124 52//52
f 52//52 61//61 60//60 53//53
f 52//52 64//64 63//63 55//55
f 52//52 124//124 123//123 56//56
f 53//53 60//60 59//59 57//57
f 53//53 65//65 64//64 52//52
f 54//54 62//62 65//65 53//53
f 54//54 71//71 70//70 55//55
f 55//55 63//63 62//62 54//54
f 55//55 70//70 73//73 50//50
f 56//56 58//58 61//61 52//52
f 56//56 67//67 66//66 57//57
f 56//56 123//123 122//122 49//49
f 57//57 59//59 58//58 56//56
f 57//57 66//66 69//69 47//47
f 58//58 86//86 89//89 61//61
f 59//59 87//87 86//86 58//58
f 60//60 88//88 87//87 59//59
f 61//61 89//89 88//88 60//60
f 62//62 82//82 85//85 65//65
f 63//63 83//83 82//82 62//62
f 64//64 84//84 83//83 63//63
f 65//65 85//85 84//84 64//64
f 66//66 78//78 81//81 69//69
f 67//67 79//79 78//78 66//66
f 68//68 80//80 79//79 67//67
f 69//69 81//81 80//80 68//68
f 70//70 74//74 77//77 73//73
f 71//71 75//75 74//74 70//70
f 72//72 76//76 75//75 71//71
f 73//73 77//77 76//76 72//72
f 74//74 102//102 105//105 77//77
f 75//75 103//103 102//102 74//74
f 76//76 104//104 103//103 75//75
f 77//77 105//105 104//104 76//76
f 78//78 98//98 101//101 81//81
f 79//79 99//99 98//98 78//78
f 80//80 100//100 99//99 79//79
f 81//81 101//101 100//100 80//80
f 82//82 94//94 97//97 85//85
f 83//83 95//95 94//94 82//82
f 84//84 96//96 95//95 83//83
f 85//85 97//97 96//96 84//84
f 86//86 90//90 93//93 89//89
f 87//87 91//91 90//90 86//86
f 88//88 92//92 91//91 87//87
f 89//89 93//93 92//92 88//88
f 91//91 92//92 93//93 90//90
f 95//95 96//96 97//97 94//94
f 99//99 100//100 101//101 98//98
f 103//103 104//104 105//105 102//102
f 106//106 131//131 166//166 119//119
f 107//107 133//133 135//135 137//137 109//109
f 108//108 136//136 134//134 131//131 106//106
f 109//109 137//137 139//139 111//111
f 110//110 138//138 136//136 108//108
f 111//111 139//139 143//143 115//115
f 112//112 114//114 13//13 11//11
f 112//112 140//140 142//142 114//114
f 113//113 141//141 140//140 112//112
f 114//114 142//142 138//138 110//110
f 115//115 143//143 141//141 113//113
f 116//116 107//107 118//118
f 117//117 160//160 130//130 15//15
f 119//119 166//166 160//160 117//117
f 120//120 125//125 129//129 124//124
f 121//121 126//126 125//125 120//120
f 122//122 127//127 126//126 121//121
f 123//123 128//128 127//127 122//122
f 124//124 129//129 128//128 123//123
f 126//126 127//127 128//128 129//129 125//125
f 130//130 147//147 144//144 15//15
f 131//131 134//134 135//135 133//133
f 131//131 171//171 168//168 166//166
f 132//132 146//146 147//147 130//130
f 133//133 107//107 234//234 167//167
f 133//133 170//170 171//171 131//131
f 136//136 137//137 135//135 134//134
f 136//136 138//138 139//139 137//137
f 138//138 142//142 143//143 139//139
f 141//141 143//143 142//142 140//140
f 144//144 148//148 149//149 145//145
f 145//145 149//149 150//150 146//146
f 146//146 150//150 151//151 147//147
f 147//147 151//151 148//148 144//144
f 148//148 152//152 153//153 149//149
f 149//149 158//158 164//164 159//159 150//150
f 150//150 154//154 155//155 151//151
f 150//150 159//159 165//165 156//156 154//154
f 151//151 155//155 152//152 148//148
f 152//152 155//155 154//154 153//153
f 153//153 157//157 163//163 158//158 149//149
f 154//154 156//156 162//162 157//157 153//153
f 160//160 161//161 132//132 130//130
f 161//161 233//233 16//16 132//132
f 162//162 163//163 157//157
f 163//163 164//164 158//158
f 164//164 165//165 159//159
f 165//165 162//162 156//156
f 165//165 164//164 163//163 162//162
f 166//166 167//167 161//161 160//160
f 166//166 168//168 169//169 167//167
f 167//167 169//169 170//170 133//133
f 167//167 234//234 233//233 161//161
f 168//168 172//172 178//178 173//173 169//169
f 169//169 173//173 176//176 174//174 170//170
f 170//170 174//174 184//184 180//180 181//181 175//175 171//171
f 171//171 175//175 177//177 172//172 168//168
f 173//173 236//236 237//237 176//176
f 174//174 196//196 193//193 184//184
f 175//175 199//199 200//200 177//177
f 176//176 195//195 196//196 174//174
f 176//176 237//237 238//238 183//183
f 177//177 182//182 179//179 178//178 172//172
f 177//177 200//200 197//197 182//182
f 178//178 235//235 236//236 173//173
f 179//179 188//188 185//185 183//183
f 179//179 191//191 192//192 180//180
f 179//179 239//239 235//235 178//178
f 180//180 187//187 188//188 179//179
f 180//180 192//192 189//189 181//181
f 181//181 189//189 190//190 182//182
f 181//181 198//198 199//199 175//175
f 182//182 190//190 191//191 179//179
f 182//182 197//197 198//198 181//181
f 183//183 185//185 186//186 184//184
f 183//183 194//194 195//195 176//176
f 183//183 238//238 239//239 179//179
f 184//184 186//186 187//187 180//180
f 184//184 193//193 194//194 183//183
f 185//185 213//213 214//214 186//186
f 186//186 214//214 215//215 187//187
f 187//187 215//215 216//216 188//188
f 188//188 216//216 213//213 185//185
f 189//189 209//209 210//210 190//190
f 190//190 210//210 211//211 191//191
f 191//191 211//211 212//212 192//192
f 192//192 212//212 209//209 189//189
f 193//193 205//205 206//206 194//194
f 194//194 206//206 207//207 195//195
f 195//195 207//207 208//208 196//196
f 196//196 208//208 205//205 193//193
f 197//197 201//201 202//202 198//198
f 198//198 202//202 203//203 199//199
f 199//199 203//203 204//204 200//200
f 200//200 204//204 201//201 197//197
f 201//201 229//229 230//230 202//202
f 202//202 230//230 231//231 203//203
f 203//203 231//231 232//232 204//204
f 204//204 232//232 229//229 201//201
f 205//205 225//225 226//226 206//206
f 206//206 226//226 227//227 207//207
f 207//207 227//227 228//228 208//208
f 208//208 228//228 225//225 205//205
f 209//209 221//221 222//222 210//210
f 210//210 222//222 223//223 211//211
f 211//211 223//223 224//224 212//212
f 212//212 224//224 221//221 209//209
f 213//213 217//217 218//218 214//214
f 214//214 218//218 219//219 215//215
f 215//215 219//219 220//220 216//216
f 216//216 220//220 217//217 213//213
f 217//217 220//220 219//219 218//218
f 221//221 224//224 223//223 222//222
f 225//225 228//228 227//227 226//226
f 229//229 232//232 231//231 230//230
f 234//234 107//107 233//233
f 235//235 240//240 241//241 236//236
f 236//236 241//241 242//242 237//237
f 237//237 242//242 243//243 238//238
f 238//238 243//243 244//244 239//239
f 239//239 244//244 240//240 235//235
f 240//240 244//244 243//243 242//242 241//241
