{
	"asset":{
		"generator":"Khronos glTF Blender I/O v4.3.47",
		"version":"2.0"
	},
	"extensionsUsed":[
		"KHR_materials_specular"
	],
	"scene":0,
	"scenes":[
		{
			"name":"Scene",
			"nodes":[
				22
			]
		}
	],
	"nodes":[
		{
			"name":"Bone.001",
			"rotation":[
				0.00659953011199832,
				1.8091208531245684e-08,
				0.002471988322213292,
				0.9999752044677734
			],
			"translation":[
				1.0913936421275139e-11,
				1.4874815940856934,
				2.8253452910576016e-09
			]
		},
		{
			"name":"Bone.018",
			"rotation":[
				-0.28997698426246643,
				0,
				-0.001848373212851584,
				0.9570318460464478
			],
			"translation":[
				-4.656612873077393e-10,
				0.43114566802978516,
				-7.588823791593313e-09
			]
		},
		{
			"children":[
				1
			],
			"name":"Bone.017",
			"rotation":[
				0.2182600200176239,
				2.534943921439492e-10,
				0.001391234458424151,
				0.9758896827697754
			],
			"scale":[
				1,
				0.9999999403953552,
				0.9999998807907104
			],
			"translation":[
				-5.775291356258094e-11,
				1.5841717720031738,
				-4.857793101109564e-08
			]
		},
		{
			"children":[
				2
			],
			"name":"Bone.004",
			"rotation":[
				-0.005154356360435486,
				-2.328337522783386e-10,
				-3.285493221483193e-05,
				0.9999867081642151
			],
			"translation":[
				5.196591490452818e-10,
				1.8290499448776245,
				-9.140433832044437e-08
			]
		},
		{
			"children":[
				3
			],
			"name":"Bone.003",
			"rotation":[
				0.1775067001581192,
				-9.611383910979043e-11,
				0.0011314644943922758,
				0.9841189384460449
			],
			"translation":[
				-5.820766091346741e-10,
				1.0283218622207642,
				-7.596099749207497e-09
			]
		},
		{
			"children":[
				4
			],
			"name":"Bone.002",
			"rotation":[
				-0.8176131248474121,
				3.164492312635048e-08,
				-0.0009102963958866894,
				0.5757672786712646
			],
			"scale":[
				0.9999999403953552,
				1,
				1.0000001192092896
			],
			"translation":[
				1.0913936421275139e-11,
				1.4874815940856934,
				2.8253452910576016e-09
			]
		},
		{
			"name":"Bone.020",
			"rotation":[
				0.1961098462343216,
				1.5948654663588968e-07,
				-0.001580315874889493,
				0.9805806875228882
			],
			"scale":[
				1,
				1,
				1.0000001192092896
			],
			"translation":[
				-9.313225746154785e-10,
				0.4246007800102234,
				-2.5647750589996576e-09
			]
		},
		{
			"children":[
				6
			],
			"name":"Bone.019",
			"rotation":[
				-0.20580719411373138,
				-5.948108117159734e-10,
				0.0016584936529397964,
				0.9785911440849304
			],
			"translation":[
				5.820766091346741e-11,
				1.6497342586517334,
				4.903995431959629e-09
			]
		},
		{
			"children":[
				7
			],
			"name":"Bone.007",
			"rotation":[
				0.024455437436699867,
				1.6168830718754634e-09,
				-0.00019707366300281137,
				0.9997009038925171
			],
			"scale":[
				0.9999999403953552,
				0.9999998807907104,
				1
			],
			"translation":[
				8.731149137020111e-10,
				1.6827856302261353,
				4.8858055379241705e-09
			]
		},
		{
			"children":[
				8
			],
			"name":"Bone.006",
			"rotation":[
				-0.20203527808189392,
				-2.0801677047543876e-10,
				0.0016280986601486802,
				0.9793769121170044
			],
			"scale":[
				1,
				1,
				0.9999999403953552
			],
			"translation":[
				2.3283064365386963e-10,
				1.1068862676620483,
				8.685310604050756e-08
			]
		},
		{
			"children":[
				9
			],
			"name":"Bone.005",
			"rotation":[
				0.830982506275177,
				-1.639095081884534e-08,
				-0.002244520466774702,
				0.5562940239906311
			],
			"scale":[
				0.9999999403953552,
				1,
				1.0000001192092896
			],
			"translation":[
				1.0913936421275139e-11,
				1.4874815940856934,
				2.8253452910576016e-09
			]
		},
		{
			"children":[
				0,
				5,
				10
			],
			"name":"Bone",
			"rotation":[
				-0.006598713342100382,
				-0.00034607393899932504,
				-0.0024742716923356056,
				0.9999751448631287
			],
			"scale":[
				0.9999999403953552,
				0.9999998807907104,
				0.9999999403953552
			]
		},
		{
			"name":"Bone.015",
			"rotation":[
				1.152453137365228e-07,
				-5.3342123607080794e-08,
				-0.7071067690849304,
				0.7071067690849304
			],
			"translation":[
				3.360526773507947e-15,
				2.1722426414489746,
				-3.725290298461914e-08
			]
		},
		{
			"children":[
				12
			],
			"name":"Bone.011",
			"rotation":[
				-0.03660339489579201,
				1.038754619700575e-14,
				-8.726929401348116e-09,
				0.9993298649787903
			],
			"scale":[
				1,
				0.9999999403953552,
				0.9999999403953552
			],
			"translation":[
				-3.744900372334818e-15,
				1.6849242448806763,
				5.960464477539063e-08
			]
		},
		{
			"children":[
				13
			],
			"name":"Bone.010",
			"rotation":[
				0.4832531809806824,
				3.246411996106653e-14,
				1.1521650833401509e-07,
				0.8754806518554688
			],
			"translation":[
				1.4018668021667686e-14,
				0.7024143934249878,
				0
			]
		},
		{
			"children":[
				14
			],
			"name":"Bone.009",
			"rotation":[
				-0.4575815796852112,
				1.059969960692797e-07,
				-5.454795726222983e-08,
				0.8891676664352417
			],
			"scale":[
				1,
				0.9999999403953552,
				1
			],
			"translation":[
				0,
				1.0288405418395996,
				0
			]
		},
		{
			"name":"Bone.016",
			"rotation":[
				-0.00020990757911931723,
				-5.935767788400881e-08,
				-0.7141406536102295,
				0.7000022530555725
			],
			"scale":[
				1.0000001192092896,
				1,
				1
			],
			"translation":[
				-1.3424150842582944e-15,
				2.221229076385498,
				-1.4901161193847656e-08
			]
		},
		{
			"children":[
				16
			],
			"name":"Bone.014",
			"rotation":[
				0.011868581175804138,
				-7.038269079828524e-15,
				2.8296898157975647e-09,
				0.9999295473098755
			],
			"scale":[
				1,
				0.9999998807907104,
				0.9999998807907104
			],
			"translation":[
				-7.461418364673039e-15,
				1.6996595859527588,
				2.9802322387695312e-08
			]
		},
		{
			"children":[
				17
			],
			"name":"Bone.013",
			"rotation":[
				-0.5058307647705078,
				1.0283384455078703e-07,
				-6.029973320664794e-08,
				0.8626327514648438
			],
			"scale":[
				1,
				1.0000001192092896,
				1
			],
			"translation":[
				3.308722450212111e-24,
				0.6889972686767578,
				-2.9802322387695312e-08
			]
		},
		{
			"children":[
				18
			],
			"name":"Bone.012",
			"rotation":[
				0.48915743827819824,
				-5.6903337549805116e-24,
				-1.0861477012862292e-16,
				0.8721955418586731
			],
			"scale":[
				1,
				0.9999999403953552,
				1
			],
			"translation":[
				0,
				1.0288405418395996,
				0
			]
		},
		{
			"children":[
				15,
				19
			],
			"name":"Bone.008",
			"rotation":[
				1,
				-1.1102230246251565e-16,
				-1.1102230246251565e-16,
				1.232595164407831e-32
			]
		},
		{
			"mesh":0,
			"name":"Cube1",
			"skin":0
		},
		{
			"children":[
				21,
				11,
				20
			],
			"name":"Armature"
		}
	],
	"animations":[
		{
			"channels":[
				{
					"sampler":0,
					"target":{
						"node":11,
						"path":"translation"
					}
				},
				{
					"sampler":1,
					"target":{
						"node":11,
						"path":"rotation"
					}
				},
				{
					"sampler":2,
					"target":{
						"node":11,
						"path":"scale"
					}
				},
				{
					"sampler":3,
					"target":{
						"node":0,
						"path":"translation"
					}
				},
				{
					"sampler":4,
					"target":{
						"node":0,
						"path":"rotation"
					}
				},
				{
					"sampler":5,
					"target":{
						"node":0,
						"path":"scale"
					}
				},
				{
					"sampler":6,
					"target":{
						"node":5,
						"path":"translation"
					}
				},
				{
					"sampler":7,
					"target":{
						"node":5,
						"path":"rotation"
					}
				},
				{
					"sampler":8,
					"target":{
						"node":5,
						"path":"scale"
					}
				},
				{
					"sampler":9,
					"target":{
						"node":4,
						"path":"translation"
					}
				},
				{
					"sampler":10,
					"target":{
						"node":4,
						"path":"rotation"
					}
				},
				{
					"sampler":11,
					"target":{
						"node":4,
						"path":"scale"
					}
				},
				{
					"sampler":12,
					"target":{
						"node":3,
						"path":"translation"
					}
				},
				{
					"sampler":13,
					"target":{
						"node":3,
						"path":"rotation"
					}
				},
				{
					"sampler":14,
					"target":{
						"node":3,
						"path":"scale"
					}
				},
				{
					"sampler":15,
					"target":{
						"node":2,
						"path":"translation"
					}
				},
				{
					"sampler":16,
					"target":{
						"node":2,
						"path":"rotation"
					}
				},
				{
					"sampler":17,
					"target":{
						"node":2,
						"path":"scale"
					}
				},
				{
					"sampler":18,
					"target":{
						"node":1,
						"path":"translation"
					}
				},
				{
					"sampler":19,
					"target":{
						"node":1,
						"path":"rotation"
					}
				},
				{
					"sampler":20,
					"target":{
						"node":1,
						"path":"scale"
					}
				},
				{
					"sampler":21,
					"target":{
						"node":10,
						"path":"translation"
					}
				},
				{
					"sampler":22,
					"target":{
						"node":10,
						"path":"rotation"
					}
				},
				{
					"sampler":23,
					"target":{
						"node":10,
						"path":"scale"
					}
				},
				{
					"sampler":24,
					"target":{
						"node":9,
						"path":"translation"
					}
				},
				{
					"sampler":25,
					"target":{
						"node":9,
						"path":"rotation"
					}
				},
				{
					"sampler":26,
					"target":{
						"node":9,
						"path":"scale"
					}
				},
				{
					"sampler":27,
					"target":{
						"node":8,
						"path":"translation"
					}
				},
				{
					"sampler":28,
					"target":{
						"node":8,
						"path":"rotation"
					}
				},
				{
					"sampler":29,
					"target":{
						"node":8,
						"path":"scale"
					}
				},
				{
					"sampler":30,
					"target":{
						"node":7,
						"path":"translation"
					}
				},
				{
					"sampler":31,
					"target":{
						"node":7,
						"path":"rotation"
					}
				},
				{
					"sampler":32,
					"target":{
						"node":7,
						"path":"scale"
					}
				},
				{
					"sampler":33,
					"target":{
						"node":6,
						"path":"translation"
					}
				},
				{
					"sampler":34,
					"target":{
						"node":6,
						"path":"rotation"
					}
				},
				{
					"sampler":35,
					"target":{
						"node":6,
						"path":"scale"
					}
				},
				{
					"sampler":36,
					"target":{
						"node":20,
						"path":"translation"
					}
				},
				{
					"sampler":37,
					"target":{
						"node":20,
						"path":"rotation"
					}
				},
				{
					"sampler":38,
					"target":{
						"node":20,
						"path":"scale"
					}
				},
				{
					"sampler":39,
					"target":{
						"node":15,
						"path":"translation"
					}
				},
				{
					"sampler":40,
					"target":{
						"node":15,
						"path":"rotation"
					}
				},
				{
					"sampler":41,
					"target":{
						"node":15,
						"path":"scale"
					}
				},
				{
					"sampler":42,
					"target":{
						"node":14,
						"path":"translation"
					}
				},
				{
					"sampler":43,
					"target":{
						"node":14,
						"path":"rotation"
					}
				},
				{
					"sampler":44,
					"target":{
						"node":14,
						"path":"scale"
					}
				},
				{
					"sampler":45,
					"target":{
						"node":13,
						"path":"translation"
					}
				},
				{
					"sampler":46,
					"target":{
						"node":13,
						"path":"rotation"
					}
				},
				{
					"sampler":47,
					"target":{
						"node":13,
						"path":"scale"
					}
				},
				{
					"sampler":48,
					"target":{
						"node":12,
						"path":"translation"
					}
				},
				{
					"sampler":49,
					"target":{
						"node":12,
						"path":"rotation"
					}
				},
				{
					"sampler":50,
					"target":{
						"node":12,
						"path":"scale"
					}
				},
				{
					"sampler":51,
					"target":{
						"node":19,
						"path":"translation"
					}
				},
				{
					"sampler":52,
					"target":{
						"node":19,
						"path":"rotation"
					}
				},
				{
					"sampler":53,
					"target":{
						"node":19,
						"path":"scale"
					}
				},
				{
					"sampler":54,
					"target":{
						"node":18,
						"path":"translation"
					}
				},
				{
					"sampler":55,
					"target":{
						"node":18,
						"path":"rotation"
					}
				},
				{
					"sampler":56,
					"target":{
						"node":18,
						"path":"scale"
					}
				},
				{
					"sampler":57,
					"target":{
						"node":17,
						"path":"translation"
					}
				},
				{
					"sampler":58,
					"target":{
						"node":17,
						"path":"rotation"
					}
				},
				{
					"sampler":59,
					"target":{
						"node":17,
						"path":"scale"
					}
				},
				{
					"sampler":60,
					"target":{
						"node":16,
						"path":"translation"
					}
				},
				{
					"sampler":61,
					"target":{
						"node":16,
						"path":"rotation"
					}
				},
				{
					"sampler":62,
					"target":{
						"node":16,
						"path":"scale"
					}
				}
			],
			"name":"ArmatureAction",
			"samplers":[
				{
					"input":6,
					"interpolation":"STEP",
					"output":7
				},
				{
					"input":8,
					"interpolation":"LINEAR",
					"output":9
				},
				{
					"input":6,
					"interpolation":"STEP",
					"output":10
				},
				{
					"input":6,
					"interpolation":"STEP",
					"output":11
				},
				{
					"input":8,
					"interpolation":"LINEAR",
					"output":12
				},
				{
					"input":6,
					"interpolation":"STEP",
					"output":13
				},
				{
					"input":6,
					"interpolation":"STEP",
					"output":14
				},
				{
					"input":6,
					"interpolation":"STEP",
					"output":15
				},
				{
					"input":6,
					"interpolation":"STEP",
					"output":16
				},
				{
					"input":6,
					"interpolation":"STEP",
					"output":17
				},
				{
					"input":8,
					"interpolation":"LINEAR",
					"output":18
				},
				{
					"input":6,
					"interpolation":"STEP",
					"output":19
				},
				{
					"input":6,
					"interpolation":"STEP",
					"output":20
				},
				{
					"input":8,
					"interpolation":"LINEAR",
					"output":21
				},
				{
					"input":6,
					"interpolation":"STEP",
					"output":22
				},
				{
					"input":6,
					"interpolation":"STEP",
					"output":23
				},
				{
					"input":6,
					"interpolation":"STEP",
					"output":24
				},
				{
					"input":6,
					"interpolation":"STEP",
					"output":25
				},
				{
					"input":6,
					"interpolation":"STEP",
					"output":26
				},
				{
					"input":8,
					"interpolation":"LINEAR",
					"output":27
				},
				{
					"input":6,
					"interpolation":"STEP",
					"output":28
				},
				{
					"input":6,
					"interpolation":"STEP",
					"output":29
				},
				{
					"input":6,
					"interpolation":"STEP",
					"output":30
				},
				{
					"input":6,
					"interpolation":"STEP",
					"output":31
				},
				{
					"input":6,
					"interpolation":"STEP",
					"output":32
				},
				{
					"input":8,
					"interpolation":"LINEAR",
					"output":33
				},
				{
					"input":6,
					"interpolation":"STEP",
					"output":34
				},
				{
					"input":6,
					"interpolation":"STEP",
					"output":35
				},
				{
					"input":8,
					"interpolation":"LINEAR",
					"output":36
				},
				{
					"input":6,
					"interpolation":"STEP",
					"output":37
				},
				{
					"input":6,
					"interpolation":"STEP",
					"output":38
				},
				{
					"input":6,
					"interpolation":"STEP",
					"output":39
				},
				{
					"input":6,
					"interpolation":"STEP",
					"output":40
				},
				{
					"input":6,
					"interpolation":"STEP",
					"output":41
				},
				{
					"input":8,
					"interpolation":"LINEAR",
					"output":42
				},
				{
					"input":6,
					"interpolation":"STEP",
					"output":43
				},
				{
					"input":6,
					"interpolation":"STEP",
					"output":44
				},
				{
					"input":8,
					"interpolation":"LINEAR",
					"output":45
				},
				{
					"input":6,
					"interpolation":"STEP",
					"output":46
				},
				{
					"input":6,
					"interpolation":"STEP",
					"output":47
				},
				{
					"input":6,
					"interpolation":"STEP",
					"output":48
				},
				{
					"input":6,
					"interpolation":"STEP",
					"output":49
				},
				{
					"input":6,
					"interpolation":"STEP",
					"output":50
				},
				{
					"input":8,
					"interpolation":"LINEAR",
					"output":51
				},
				{
					"input":6,
					"interpolation":"STEP",
					"output":52
				},
				{
					"input":6,
					"interpolation":"STEP",
					"output":53
				},
				{
					"input":8,
					"interpolation":"LINEAR",
					"output":54
				},
				{
					"input":6,
					"interpolation":"STEP",
					"output":55
				},
				{
					"input":6,
					"interpolation":"STEP",
					"output":56
				},
				{
					"input":8,
					"interpolation":"LINEAR",
					"output":57
				},
				{
					"input":6,
					"interpolation":"STEP",
					"output":58
				},
				{
					"input":6,
					"interpolation":"STEP",
					"output":59
				},
				{
					"input":6,
					"interpolation":"STEP",
					"output":60
				},
				{
					"input":6,
					"interpolation":"STEP",
					"output":61
				},
				{
					"input":6,
					"interpolation":"STEP",
					"output":62
				},
				{
					"input":8,
					"interpolation":"LINEAR",
					"output":63
				},
				{
					"input":6,
					"interpolation":"STEP",
					"output":64
				},
				{
					"input":6,
					"interpolation":"STEP",
					"output":65
				},
				{
					"input":8,
					"interpolation":"LINEAR",
					"output":66
				},
				{
					"input":6,
					"interpolation":"STEP",
					"output":67
				},
				{
					"input":6,
					"interpolation":"STEP",
					"output":68
				},
				{
					"input":8,
					"interpolation":"LINEAR",
					"output":69
				},
				{
					"input":6,
					"interpolation":"STEP",
					"output":70
				}
			]
		}
	],
	"materials":[
		{
			"doubleSided":true,
			"extensions":{
				"KHR_materials_specular":{
					"specularFactor":0.3331487476825714
				}
			},
			"name":"default",
			"pbrMetallicRoughness":{
				"baseColorFactor":[
					0.7898538112640381,
					0.8133333325386047,
					0.6940444707870483,
					1
				],
				"metallicFactor":0,
				"roughnessFactor":0.8585786819458008
			}
		}
	],
	"meshes":[
		{
			"name":"Cube1",
			"primitives":[
				{
					"attributes":{
						"POSITION":0,
						"NORMAL":1,
						"JOINTS_0":2,
						"WEIGHTS_0":3
					},
					"indices":4,
					"material":0
				}
			]
		}
	],
	"skins":[
		{
			"inverseBindMatrices":5,
			"joints":[
				11,
				0,
				5,
				4,
				3,
				2,
				1,
				10,
				9,
				8,
				7,
				6,
				20,
				15,
				14,
				13,
				12,
				19,
				18,
				17,
				16
			],
			"name":"Armature"
		}
	],
	"accessors":[
		{
			"bufferView":0,
			"componentType":5126,
			"count":246,
			"max":[
				0.9250527024269104,
				3.095928907394409,
				5.259515762329102
			],
			"min":[
				-0.44999998807907104,
				-5.449906826019287,
				-5.259515762329102
			],
			"type":"VEC3"
		},
		{
			"bufferView":1,
			"componentType":5126,
			"count":246,
			"type":"VEC3"
		},
		{
			"bufferView":2,
			"componentType":5121,
			"count":246,
			"type":"VEC4"
		},
		{
			"bufferView":3,
			"componentType":5126,
			"count":246,
			"type":"VEC4"
		},
		{
			"bufferView":4,
			"componentType":5123,
			"count":1452,
			"type":"SCALAR"
		},
		{
			"bufferView":5,
			"componentType":5126,
			"count":21,
			"type":"MAT4"
		},
		{
			"bufferView":6,
			"componentType":5126,
			"count":2,
			"max":[
				2.5
			],
			"min":[
				0.041666666666666664
			],
			"type":"SCALAR"
		},
		{
			"bufferView":7,
			"componentType":5126,
			"count":2,
			"type":"VEC3"
		},
		{
			"bufferView":8,
			"componentType":5126,
			"count":60,
			"max":[
				2.5
			],
			"min":[
				0.041666666666666664
			],
			"type":"SCALAR"
		},
		{
			"bufferView":9,
			"componentType":5126,
			"count":60,
			"type":"VEC4"
		},
		{
			"bufferView":10,
			"componentType":5126,
			"count":2,
			"type":"VEC3"
		},
		{
			"bufferView":11,
			"componentType":5126,
			"count":2,
			"type":"VEC3"
		},
		{
			"bufferView":12,
			"componentType":5126,
			"count":60,
			"type":"VEC4"
		},
		{
			"bufferView":13,
			"componentType":5126,
			"count":2,
			"type":"VEC3"
		},
		{
			"bufferView":14,
			"componentType":5126,
			"count":2,
			"type":"VEC3"
		},
		{
			"bufferView":15,
			"componentType":5126,
			"count":2,
			"type":"VEC4"
		},
		{
			"bufferView":16,
			"componentType":5126,
			"count":2,
			"type":"VEC3"
		},
		{
			"bufferView":17,
			"componentType":5126,
			"count":2,
			"type":"VEC3"
		},
		{
			"bufferView":18,
			"componentType":5126,
			"count":60,
			"type":"VEC4"
		},
		{
			"bufferView":19,
			"componentType":5126,
			"count":2,
			"type":"VEC3"
		},
		{
			"bufferView":20,
			"componentType":5126,
			"count":2,
			"type":"VEC3"
		},
		{
			"bufferView":21,
			"componentType":5126,
			"count":60,
			"type":"VEC4"
		},
		{
			"bufferView":22,
			"componentType":5126,
			"count":2,
			"type":"VEC3"
		},
		{
			"bufferView":23,
			"componentType":5126,
			"count":2,
			"type":"VEC3"
		},
		{
			"bufferView":24,
			"componentType":5126,
			"count":2,
			"type":"VEC4"
		},
		{
			"bufferView":25,
			"componentType":5126,
			"count":2,
			"type":"VEC3"
		},
		{
			"bufferView":26,
			"componentType":5126,
			"count":2,
			"type":"VEC3"
		},
		{
			"bufferView":27,
			"componentType":5126,
			"count":60,
			"type":"VEC4"
		},
		{
			"bufferView":28,
			"componentType":5126,
			"count":2,
			"type":"VEC3"
		},
		{
			"bufferView":29,
			"componentType":5126,
			"count":2,
			"type":"VEC3"
		},
		{
			"bufferView":30,
			"componentType":5126,
			"count":2,
			"type":"VEC4"
		},
		{
			"bufferView":31,
			"componentType":5126,
			"count":2,
			"type":"VEC3"
		},
		{
			"bufferView":32,
			"componentType":5126,
			"count":2,
			"type":"VEC3"
		},
		{
			"bufferView":33,
			"componentType":5126,
			"count":60,
			"type":"VEC4"
		},
		{
			"bufferView":34,
			"componentType":5126,
			"count":2,
			"type":"VEC3"
		},
		{
			"bufferView":35,
			"componentType":5126,
			"count":2,
			"type":"VEC3"
		},
		{
			"bufferView":36,
			"componentType":5126,
			"count":60,
			"type":"VEC4"
		},
		{
			"bufferView":37,
			"componentType":5126,
			"count":2,
			"type":"VEC3"
		},
		{
			"bufferView":38,
			"componentType":5126,
			"count":2,
			"type":"VEC3"
		},
		{
			"bufferView":39,
			"componentType":5126,
			"count":2,
			"type":"VEC4"
		},
		{
			"bufferView":40,
			"componentType":5126,
			"count":2,
			"type":"VEC3"
		},
		{
			"bufferView":41,
			"componentType":5126,
			"count":2,
			"type":"VEC3"
		},
		{
			"bufferView":42,
			"componentType":5126,
			"count":60,
			"type":"VEC4"
		},
		{
			"bufferView":43,
			"componentType":5126,
			"count":2,
			"type":"VEC3"
		},
		{
			"bufferView":44,
			"componentType":5126,
			"count":2,
			"type":"VEC3"
		},
		{
			"bufferView":45,
			"componentType":5126,
			"count":60,
			"type":"VEC4"
		},
		{
			"bufferView":46,
			"componentType":5126,
			"count":2,
			"type":"VEC3"
		},
		{
			"bufferView":47,
			"componentType":5126,
			"count":2,
			"type":"VEC3"
		},
		{
			"bufferView":48,
			"componentType":5126,
			"count":2,
			"type":"VEC4"
		},
		{
			"bufferView":49,
			"componentType":5126,
			"count":2,
			"type":"VEC3"
		},
		{
			"bufferView":50,
			"componentType":5126,
			"count":2,
			"type":"VEC3"
		},
		{
			"bufferView":51,
			"componentType":5126,
			"count":60,
			"type":"VEC4"
		},
		{
			"bufferView":52,
			"componentType":5126,
			"count":2,
			"type":"VEC3"
		},
		{
			"bufferView":53,
			"componentType":5126,
			"count":2,
			"type":"VEC3"
		},
		{
			"bufferView":54,
			"componentType":5126,
			"count":60,
			"type":"VEC4"
		},
		{
			"bufferView":55,
			"componentType":5126,
			"count":2,
			"type":"VEC3"
		},
		{
			"bufferView":56,
			"componentType":5126,
			"count":2,
			"type":"VEC3"
		},
		{
			"bufferView":57,
			"componentType":5126,
			"count":60,
			"type":"VEC4"
		},
		{
			"bufferView":58,
			"componentType":5126,
			"count":2,
			"type":"VEC3"
		},
		{
			"bufferView":59,
			"componentType":5126,
			"count":2,
			"type":"VEC3"
		},
		{
			"bufferView":60,
			"componentType":5126,
			"count":2,
			"type":"VEC4"
		},
		{
			"bufferView":61,
			"componentType":5126,
			"count":2,
			"type":"VEC3"
		},
		{
			"bufferView":62,
			"componentType":5126,
			"count":2,
			"type":"VEC3"
		},
		{
			"bufferView":63,
			"componentType":5126,
			"count":60,
			"type":"VEC4"
		},
		{
			"bufferView":64,
			"componentType":5126,
			"count":2,
			"type":"VEC3"
		},
		{
			"bufferView":65,
			"componentType":5126,
			"count":2,
			"type":"VEC3"
		},
		{
			"bufferView":66,
			"componentType":5126,
			"count":60,
			"type":"VEC4"
		},
		{
			"bufferView":67,
			"componentType":5126,
			"count":2,
			"type":"VEC3"
		},
		{
			"bufferView":68,
			"componentType":5126,
			"count":2,
			"type":"VEC3"
		},
		{
			"bufferView":69,
			"componentType":5126,
			"count":60,
			"type":"VEC4"
		},
		{
			"bufferView":70,
			"componentType":5126,
			"count":2,
			"type":"VEC3"
		}
	],
	"bufferViews":[
		{
			"buffer":0,
			"byteLength":2952,
			"byteOffset":0,
			"target":34962
		},
		{
			"buffer":0,
			"byteLength":2952,
			"byteOffset":2952,
			"target":34962
		},
		{
			"buffer":0,
			"byteLength":984,
			"byteOffset":5904,
			"target":34962
		},
		{
			"buffer":0,
			"byteLength":3936,
			"byteOffset":6888,
			"target":34962
		},
		{
			"buffer":0,
			"byteLength":2904,
			"byteOffset":10824,
			"target":34963
		},
		{
			"buffer":0,
			"byteLength":1344,
			"byteOffset":13728
		},
		{
			"buffer":0,
			"byteLength":8,
			"byteOffset":15072
		},
		{
			"buffer":0,
			"byteLength":24,
			"byteOffset":15080
		},
		{
			"buffer":0,
			"byteLength":240,
			"byteOffset":15104
		},
		{
			"buffer":0,
			"byteLength":960,
			"byteOffset":15344
		},
		{
			"buffer":0,
			"byteLength":24,
			"byteOffset":16304
		},
		{
			"buffer":0,
			"byteLength":24,
			"byteOffset":16328
		},
		{
			"buffer":0,
			"byteLength":960,
			"byteOffset":16352
		},
		{
			"buffer":0,
			"byteLength":24,
			"byteOffset":17312
		},
		{
			"buffer":0,
			"byteLength":24,
			"byteOffset":17336
		},
		{
			"buffer":0,
			"byteLength":32,
			"byteOffset":17360
		},
		{
			"buffer":0,
			"byteLength":24,
			"byteOffset":17392
		},
		{
			"buffer":0,
			"byteLength":24,
			"byteOffset":17416
		},
		{
			"buffer":0,
			"byteLength":960,
			"byteOffset":17440
		},
		{
			"buffer":0,
			"byteLength":24,
			"byteOffset":18400
		},
		{
			"buffer":0,
			"byteLength":24,
			"byteOffset":18424
		},
		{
			"buffer":0,
			"byteLength":960,
			"byteOffset":18448
		},
		{
			"buffer":0,
			"byteLength":24,
			"byteOffset":19408
		},
		{
			"buffer":0,
			"byteLength":24,
			"byteOffset":19432
		},
		{
			"buffer":0,
			"byteLength":32,
			"byteOffset":19456
		},
		{
			"buffer":0,
			"byteLength":24,
			"byteOffset":19488
		},
		{
			"buffer":0,
			"byteLength":24,
			"byteOffset":19512
		},
		{
			"buffer":0,
			"byteLength":960,
			"byteOffset":19536
		},
		{
			"buffer":0,
			"byteLength":24,
			"byteOffset":20496
		},
		{
			"buffer":0,
			"byteLength":24,
			"byteOffset":20520
		},
		{
			"buffer":0,
			"byteLength":32,
			"byteOffset":20544
		},
		{
			"buffer":0,
			"byteLength":24,
			"byteOffset":20576
		},
		{
			"buffer":0,
			"byteLength":24,
			"byteOffset":20600
		},
		{
			"buffer":0,
			"byteLength":960,
			"byteOffset":20624
		},
		{
			"buffer":0,
			"byteLength":24,
			"byteOffset":21584
		},
		{
			"buffer":0,
			"byteLength":24,
			"byteOffset":21608
		},
		{
			"buffer":0,
			"byteLength":960,
			"byteOffset":21632
		},
		{
			"buffer":0,
			"byteLength":24,
			"byteOffset":22592
		},
		{
			"buffer":0,
			"byteLength":24,
			"byteOffset":22616
		},
		{
			"buffer":0,
			"byteLength":32,
			"byteOffset":22640
		},
		{
			"buffer":0,
			"byteLength":24,
			"byteOffset":22672
		},
		{
			"buffer":0,
			"byteLength":24,
			"byteOffset":22696
		},
		{
			"buffer":0,
			"byteLength":960,
			"byteOffset":22720
		},
		{
			"buffer":0,
			"byteLength":24,
			"byteOffset":23680
		},
		{
			"buffer":0,
			"byteLength":24,
			"byteOffset":23704
		},
		{
			"buffer":0,
			"byteLength":960,
			"byteOffset":23728
		},
		{
			"buffer":0,
			"byteLength":24,
			"byteOffset":24688
		},
		{
			"buffer":0,
			"byteLength":24,
			"byteOffset":24712
		},
		{
			"buffer":0,
			"byteLength":32,
			"byteOffset":24736
		},
		{
			"buffer":0,
			"byteLength":24,
			"byteOffset":24768
		},
		{
			"buffer":0,
			"byteLength":24,
			"byteOffset":24792
		},
		{
			"buffer":0,
			"byteLength":960,
			"byteOffset":24816
		},
		{
			"buffer":0,
			"byteLength":24,
			"byteOffset":25776
		},
		{
			"buffer":0,
			"byteLength":24,
			"byteOffset":25800
		},
		{
			"buffer":0,
			"byteLength":960,
			"byteOffset":25824
		},
		{
			"buffer":0,
			"byteLength":24,
			"byteOffset":26784
		},
		{
			"buffer":0,
			"byteLength":24,
			"byteOffset":26808
		},
		{
			"buffer":0,
			"byteLength":960,
			"byteOffset":26832
		},
		{
			"buffer":0,
			"byteLength":24,
			"byteOffset":27792
		},
		{
			"buffer":0,
			"byteLength":24,
			"byteOffset":27816
		},
		{
			"buffer":0,
			"byteLength":32,
			"byteOffset":27840
		},
		{
			"buffer":0,
			"byteLength":24,
			"byteOffset":27872
		},
		{
			"buffer":0,
			"byteLength":24,
			"byteOffset":27896
		},
		{
			"buffer":0,
			"byteLength":960,
			"byteOffset":27920
		},
		{
			"buffer":0,
			"byteLength":24,
			"byteOffset":28880
		},
		{
			"buffer":0,
			"byteLength":24,
			"byteOffset":28904
		},
		{
			"buffer":0,
			"byteLength":960,
			"byteOffset":28928
		},
		{
			"buffer":0,
			"byteLength":24,
			"byteOffset":29888
		},
		{
			"buffer":0,
			"byteLength":24,
			"byteOffset":29912
		},
		{
			"buffer":0,
			"byteLength":960,
			"byteOffset":29936
		},
		{
			"buffer":0,
			"byteLength":24,
			"byteOffset":30896
		}
	],
	"buffers":[
		{
			"byteLength":30920,
			"uri":"robot.bin"
		}
	]
}
